<mxfile host="app.diagrams.net" agent="Mozilla/5.0 (X11; Linux x86_64) AppleWebKit/537.36 (KHTML, like Gecko) Chrome/130.0.0.0 Safari/537.36" version="25.0.3">
  <diagram name="Page-1" id="nn2_iX7rAeVFgC2DP8zu">
    <mxGraphModel dx="819" dy="454" grid="1" gridSize="10" guides="1" tooltips="1" connect="1" arrows="1" fold="1" page="1" pageScale="1" pageWidth="827" pageHeight="1169" math="0" shadow="0">
      <root>
        <mxCell id="0" />
        <mxCell id="1" parent="0" />
        <mxCell id="GRMFtZGAj5YZ1t8Szxvn-36" value="Owner app flow" style="swimlane;startSize=30;horizontal=0;childLayout=treeLayout;horizontalTree=1;sortEdges=1;resizable=0;containerType=tree;fontSize=12;" vertex="1" parent="1">
          <mxGeometry x="30" y="50" width="618" height="652" as="geometry" />
        </mxCell>
        <mxCell id="GRMFtZGAj5YZ1t8Szxvn-37" value="Sart" style="whiteSpace=wrap;html=1;" vertex="1" parent="GRMFtZGAj5YZ1t8Szxvn-36">
          <mxGeometry x="50" y="450" width="100" height="40" as="geometry" />
        </mxCell>
        <mxCell id="GRMFtZGAj5YZ1t8Szxvn-38" value="Sign Up" style="whiteSpace=wrap;html=1;" vertex="1" parent="GRMFtZGAj5YZ1t8Szxvn-36">
          <mxGeometry x="200" y="348.125" width="100" height="40" as="geometry" />
        </mxCell>
        <mxCell id="GRMFtZGAj5YZ1t8Szxvn-39" value="" style="edgeStyle=elbowEdgeStyle;elbow=horizontal;html=1;rounded=1;curved=0;sourcePerimeterSpacing=0;targetPerimeterSpacing=0;startSize=6;endSize=6;" edge="1" parent="GRMFtZGAj5YZ1t8Szxvn-36" source="GRMFtZGAj5YZ1t8Szxvn-37" target="GRMFtZGAj5YZ1t8Szxvn-38">
          <mxGeometry relative="1" as="geometry" />
        </mxCell>
        <mxCell id="GRMFtZGAj5YZ1t8Szxvn-40" value="Login" style="whiteSpace=wrap;html=1;" vertex="1" parent="GRMFtZGAj5YZ1t8Szxvn-36">
          <mxGeometry x="200" y="551.875" width="100" height="40" as="geometry" />
        </mxCell>
        <mxCell id="GRMFtZGAj5YZ1t8Szxvn-41" value="" style="edgeStyle=elbowEdgeStyle;elbow=horizontal;html=1;rounded=1;curved=0;sourcePerimeterSpacing=0;targetPerimeterSpacing=0;startSize=6;endSize=6;" edge="1" parent="GRMFtZGAj5YZ1t8Szxvn-36" source="GRMFtZGAj5YZ1t8Szxvn-37" target="GRMFtZGAj5YZ1t8Szxvn-40">
          <mxGeometry relative="1" as="geometry" />
        </mxCell>
        <mxCell id="GRMFtZGAj5YZ1t8Szxvn-45" value="" style="edgeStyle=elbowEdgeStyle;elbow=horizontal;html=1;rounded=1;curved=0;sourcePerimeterSpacing=0;targetPerimeterSpacing=0;startSize=6;endSize=6;" edge="1" target="GRMFtZGAj5YZ1t8Szxvn-46" source="GRMFtZGAj5YZ1t8Szxvn-40" parent="GRMFtZGAj5YZ1t8Szxvn-36">
          <mxGeometry relative="1" as="geometry">
            <mxPoint x="180" y="20" as="sourcePoint" />
          </mxGeometry>
        </mxCell>
        <mxCell id="GRMFtZGAj5YZ1t8Szxvn-46" value="Login With Credential" style="whiteSpace=wrap;html=1;" vertex="1" parent="GRMFtZGAj5YZ1t8Szxvn-36">
          <mxGeometry x="350" y="511.875" width="100" height="40" as="geometry" />
        </mxCell>
        <mxCell id="GRMFtZGAj5YZ1t8Szxvn-47" value="" style="edgeStyle=elbowEdgeStyle;elbow=horizontal;html=1;rounded=1;curved=0;sourcePerimeterSpacing=0;targetPerimeterSpacing=0;startSize=6;endSize=6;exitX=1;exitY=0.5;exitDx=0;exitDy=0;" edge="1" parent="GRMFtZGAj5YZ1t8Szxvn-36" source="GRMFtZGAj5YZ1t8Szxvn-37">
          <mxGeometry relative="1" as="geometry">
            <mxPoint x="160" y="-20" as="sourcePoint" />
            <mxPoint x="160" y="40" as="targetPoint" />
            <Array as="points">
              <mxPoint x="160" y="20" />
            </Array>
          </mxGeometry>
        </mxCell>
        <mxCell id="GRMFtZGAj5YZ1t8Szxvn-54" value="" style="edgeStyle=elbowEdgeStyle;elbow=horizontal;html=1;rounded=1;curved=0;sourcePerimeterSpacing=0;targetPerimeterSpacing=0;startSize=6;endSize=6;" edge="1" target="GRMFtZGAj5YZ1t8Szxvn-55" source="GRMFtZGAj5YZ1t8Szxvn-40" parent="GRMFtZGAj5YZ1t8Szxvn-36">
          <mxGeometry relative="1" as="geometry">
            <mxPoint x="180" y="280" as="sourcePoint" />
          </mxGeometry>
        </mxCell>
        <mxCell id="GRMFtZGAj5YZ1t8Szxvn-55" value="Email OTP" style="whiteSpace=wrap;html=1;" vertex="1" parent="GRMFtZGAj5YZ1t8Szxvn-36">
          <mxGeometry x="350" y="591.875" width="100" height="40" as="geometry" />
        </mxCell>
        <mxCell id="GRMFtZGAj5YZ1t8Szxvn-56" value="" style="edgeStyle=elbowEdgeStyle;elbow=horizontal;html=1;rounded=1;curved=0;sourcePerimeterSpacing=0;targetPerimeterSpacing=0;startSize=6;endSize=6;" edge="1" target="GRMFtZGAj5YZ1t8Szxvn-57" source="GRMFtZGAj5YZ1t8Szxvn-38" parent="GRMFtZGAj5YZ1t8Szxvn-36">
          <mxGeometry relative="1" as="geometry">
            <mxPoint x="180" y="280" as="sourcePoint" />
          </mxGeometry>
        </mxCell>
        <mxCell id="GRMFtZGAj5YZ1t8Szxvn-57" value="Home" style="whiteSpace=wrap;html=1;" vertex="1" parent="GRMFtZGAj5YZ1t8Szxvn-36">
          <mxGeometry x="350" y="264.375" width="100" height="207.5" as="geometry" />
        </mxCell>
        <mxCell id="GRMFtZGAj5YZ1t8Szxvn-58" value="" style="edgeStyle=elbowEdgeStyle;elbow=horizontal;html=1;rounded=1;curved=0;sourcePerimeterSpacing=0;targetPerimeterSpacing=0;startSize=6;endSize=6;" edge="1" target="GRMFtZGAj5YZ1t8Szxvn-59" source="GRMFtZGAj5YZ1t8Szxvn-57" parent="GRMFtZGAj5YZ1t8Szxvn-36">
          <mxGeometry relative="1" as="geometry">
            <mxPoint x="330" y="418" as="sourcePoint" />
          </mxGeometry>
        </mxCell>
        <mxCell id="GRMFtZGAj5YZ1t8Szxvn-59" value="Create Outlet" style="whiteSpace=wrap;html=1;" vertex="1" parent="GRMFtZGAj5YZ1t8Szxvn-36">
          <mxGeometry x="500" y="348.81" width="98" height="38.63" as="geometry" />
        </mxCell>
        <mxCell id="GRMFtZGAj5YZ1t8Szxvn-60" style="edgeStyle=orthogonalEdgeStyle;rounded=0;orthogonalLoop=1;jettySize=auto;html=1;exitX=0.5;exitY=1;exitDx=0;exitDy=0;" edge="1" parent="GRMFtZGAj5YZ1t8Szxvn-36" source="GRMFtZGAj5YZ1t8Szxvn-59" target="GRMFtZGAj5YZ1t8Szxvn-59">
          <mxGeometry relative="1" as="geometry" />
        </mxCell>
      </root>
    </mxGraphModel>
  </diagram>
</mxfile>
